<?xml version="1.0" encoding="UTF-8" standalone="no"?>
<!-- Created with Inkscape (http://www.inkscape.org/) -->

<svg
   width="300mm"
   height="300mm"
   viewBox="0 0 300 300"
   version="1.1"
   id="svg1"
   xml:space="preserve"
   inkscape:version="1.4.2 (ebf0e940d0, 2025-05-08)"
   sodipodi:docname="tagmaster.svg"
   inkscape:export-filename="/tmp/tagmaster.png"
   inkscape:export-xdpi="5.4186668"
   inkscape:export-ydpi="5.4186668"
   xmlns:inkscape="http://www.inkscape.org/namespaces/inkscape"
   xmlns:sodipodi="http://sodipodi.sourceforge.net/DTD/sodipodi-0.dtd"
   xmlns="http://www.w3.org/2000/svg"
   xmlns:svg="http://www.w3.org/2000/svg"><sodipodi:namedview
     id="namedview1"
     pagecolor="#ffffff"
     bordercolor="#000000"
     borderopacity="0.25"
     inkscape:showpageshadow="2"
     inkscape:pageopacity="0.0"
     inkscape:pagecheckerboard="0"
     inkscape:deskcolor="#d1d1d1"
     inkscape:document-units="mm"
     inkscape:zoom="0.27863116"
     inkscape:cx="204.57152"
     inkscape:cy="410.93753"
     inkscape:window-width="1920"
     inkscape:window-height="1008"
     inkscape:window-x="0"
     inkscape:window-y="0"
     inkscape:window-maximized="1"
     inkscape:current-layer="layer1"><inkscape:page
       x="0"
       y="0"
       width="300"
       height="300"
       id="page2"
       margin="0"
       bleed="0" /></sodipodi:namedview><defs
     id="defs1" /><g
     inkscape:label="Layer 1"
     inkscape:groupmode="layer"
     id="layer1"
     transform="translate(572.67242,39.699088)"><path
       id="rect7"
       style="display:none;fill:#1a1b26;stroke:none;stroke-width:11.5;stroke-linecap:round;stroke-linejoin:round;paint-order:markers stroke fill"
       d="m -572.67242,-39.699088 h 300 V 260.30091 h -300 z"
       sodipodi:nodetypes="ccccc" /><path
       d="m -422.76167,29.129786 a 17.412549,17.412549 0 0 0 -2.30116,0.219625 l -2.60862,0.425297 c -0.0672,0.849439 -0.0998,1.701317 -0.0977,2.551782 0.003,1.272563 0.0845,2.541472 0.24495,3.79305 0.12442,0.970554 0.2965,1.930693 0.51676,2.873726 0.76508,3.275737 2.06661,6.401511 4.03541,9.289356 a 12.484589,12.484589 0 0 1 6.62234,7.776269 6.2867534,6.2867534 0 0 1 0.49247,3.054594 12.484589,12.484589 0 0 1 -1.16168,5.720065 12.484589,12.484589 0 0 1 -16.59124,6.038907 12.484589,12.484589 0 0 1 -7.07037,-9.463505 c -1.14129,-1.598889 -2.18596,-3.276343 -3.13055,-5.041552 -1.98363,-3.706877 -3.52574,-7.80164 -4.59352,-12.373405 -0.33546,-1.436247 -0.6086,-2.88345 -0.81959,-4.337203 -0.30263,-2.085169 -0.47761,-4.183832 -0.52607,-6.283338 l -24.9592,4.068486 a 22.42591,22.42591 0 0 0 -16.71681,12.656592 l -53.05929,113.785818 a 11.859366,11.859366 0 0 0 5.73608,15.75976 l 89.39713,41.68686 a 11.859366,11.859366 0 0 0 15.76028,-5.7366 l 13.60899,-29.1853 10.34769,-22.18986 16.48168,-35.34461 12.62093,-27.06605 a 22.425912,22.425912 0 0 0 -1.05058,-20.940837 l -25.71264,-43.23302 a 17.412549,17.412549 0 0 0 -12.68501,-8.36228 17.412549,17.412549 0 0 0 -2.78071,-0.142627 z m -57.21047,59.098718 18.94303,8.833053 45.78584,21.350633 -4.11344,8.82117 -2.50218,5.36608 -3.22202,-1.50223 -19.68459,-9.17929 -2.69131,5.57279 -30.15785,62.4427 -18.91615,-8.82117 32.84915,-68.01497 -22.90609,-10.68152 z"
       style="font-variation-settings:'opsz' 32, 'wght' 900;baseline-shift:baseline;display:inline;overflow:visible;vector-effect:none;fill:#2ac3de;stroke-width:0.914713;stroke-linecap:round;stroke-linejoin:round;paint-order:markers stroke fill;enable-background:accumulate;stop-color:#000000;stop-opacity:1"
       id="path7" /><path
       d="m -405.31261,-9.9489659 c -1.01764,-0.017142 -2.03241,0.014473 -3.04167,0.092501 -6.05559,0.4681696 -11.90134,2.6127197 -16.88528,5.9851644 -6.61797,4.47812379 -11.56764,10.9477986 -14.60893,18.1213745 -1.58278,3.733369 -2.65332,7.662706 -3.1998,11.661303 v 5.17e-4 c -0.29147,2.132826 -0.43391,4.285243 -0.42581,6.438367 0.008,2.103624 0.15985,4.207915 0.45682,6.294706 0.18706,1.31452 0.43156,2.622356 0.73432,3.918624 0.62211,2.663605 1.39005,5.095316 2.31355,7.344771 0.38652,0.941488 0.80054,1.85086 1.2423,2.732133 2.52919,5.04547 5.97549,9.163954 10.4743,13.037964 3.12466,-1.294558 5.16948,-3.66888 6.13451,-7.123079 -3.84804,-3.313616 -6.67918,-7.145752 -8.61911,-11.248926 -1.0531,-2.227411 -1.84328,-4.534639 -2.39159,-6.882267 -0.11531,-0.493707 -0.2198,-0.990476 -0.31368,-1.489315 -0.11253,-0.598029 -0.2101,-1.199144 -0.29197,-1.802991 -0.28313,-2.088436 -0.38314,-4.206807 -0.30334,-6.319511 0.0826,-2.186682 0.35807,-4.367436 0.82269,-6.503479 0.47646,-2.190483 1.15172,-4.334036 2.02262,-6.38824 2.39711,-5.654154 6.30165,-10.6746804 11.22308,-14.0048299 4.89414,-3.31168256 10.97203,-4.9716124 16.65067,-4.32376714 6.16071,0.70284255 12.14049,4.25835384 15.70033,9.33534754 3.61188,5.1512095 6.42902,11.9036265 5.26325,19.2675575 l 9.28625,1.471228 c 1.61656,-10.211475 -1.7365,-18.843789 -6.85023,-26.1369057 -5.16576,-7.3673316 -13.39461,-12.2588665 -22.33455,-13.278776 -1.02057,-0.1164307 -2.04109,-0.1823291 -3.05873,-0.1994712 z"
       style="baseline-shift:baseline;display:inline;overflow:visible;vector-effect:none;fill:#9aa5ce;stroke-width:0.914713;stroke-linejoin:round;paint-order:markers stroke fill;enable-background:accumulate;stop-color:#000000;stop-opacity:1"
       id="path5" /><path
       d="m -404.29872,31.077987 c 0.88816,1.03098 1.69435,2.147685 2.40554,3.343465 l 25.71368,43.232504 c 4.85214,8.158326 5.35515,18.207926 1.34358,26.810764 l -13.37541,28.68352 18.30483,15.82539 -0.7059,-44.47015 21.97023,-10.244853 34.2036,73.349523 -18.81746,8.77466 -22.90196,-49.11328 1.26608,38.21214 -13.05399,6.08697 -26.91929,-24.15098 -0.44751,0.95963 21.81055,46.77285 -17.8325,8.31526 -14.83269,-31.80943 -10.34769,22.19038 10.1415,21.74802 a 11.859366,11.859366 0 0 0 15.76028,5.7366 l 89.39661,-41.68686 a 11.859366,11.859366 0 0 0 5.7366,-15.75976 L -348.53933,50.098532 A 22.425912,22.425912 0 0 0 -365.25614,37.44194 Z"
       style="font-variation-settings:'opsz' 32, 'wght' 900;fill:#7f89ac;stroke-width:0.914713;stroke-linecap:round;stroke-linejoin:round;paint-order:fill markers stroke"
       id="path3" /></g></svg>
